<?xml version="1.0" standalone="no"?>
<!DOCTYPE svg PUBLIC "-//W3C//DTD SVG 20010904//EN"
 "http://www.w3.org/TR/2001/REC-SVG-20010904/DTD/svg10.dtd">
<svg version="1.0" xmlns="http://www.w3.org/2000/svg"
 width="843.000000pt" height="670.000000pt" viewBox="0 0 843.000000 670.000000"
 preserveAspectRatio="xMidYMid meet">

<g transform="translate(0.000000,670.000000) scale(0.100000,-0.100000)"
fill="#000000" stroke="none">
<path d="M3095 4826 c-67 -31 -103 -100 -85 -167 13 -46 42 -83 77 -98 15 -6
303 -85 638 -175 336 -91 666 -180 735 -200 347 -97 993 -266 1016 -266 67 0
144 80 144 149 0 42 -32 104 -65 125 -21 14 -1120 316 -1206 331 -14 3 -277
72 -585 155 -307 83 -577 153 -599 155 -23 3 -52 0 -70 -9z"/>
<path d="M2930 4241 c-94 -49 -107 -164 -27 -239 19 -18 173 -63 728 -212 387
-105 801 -216 919 -249 612 -168 753 -203 788 -198 136 23 168 210 47 278 -17
9 -255 76 -530 149 -275 73 -802 213 -1171 311 -369 99 -682 179 -695 179 -13
0 -40 -8 -59 -19z"/>
<path d="M2785 3666 c-76 -33 -109 -116 -76 -191 24 -55 59 -77 165 -104 85
-21 1219 -327 1883 -507 317 -86 400 -105 430 -99 49 9 109 69 118 118 10 50
-17 120 -55 147 -18 13 -195 65 -457 135 -1505 401 -1940 515 -1958 515 -11
-1 -34 -7 -50 -14z"/>
<path d="M2620 3082 c-93 -46 -107 -166 -28 -239 33 -31 1466 -417 1517 -409
127 20 166 199 57 265 -33 20 -1445 401 -1486 401 -14 0 -41 -8 -60 -18z"/>
</g>
</svg>
