<?xml version="1.0" standalone="no"?>
<!DOCTYPE svg PUBLIC "-//W3C//DTD SVG 20010904//EN"
 "http://www.w3.org/TR/2001/REC-SVG-20010904/DTD/svg10.dtd">
<svg version="1.0" xmlns="http://www.w3.org/2000/svg"
 width="841.000000pt" height="670.000000pt" viewBox="0 0 841.000000 670.000000"
 preserveAspectRatio="xMidYMid meet">

<g transform="translate(0.000000,670.000000) scale(0.100000,-0.100000)"
fill="#000000" stroke="none">
<path d="M4040 5922 l0 -519 82 -69 c45 -38 90 -73 99 -79 10 -5 77 -59 149
-120 296 -248 398 -333 450 -372 30 -22 87 -71 125 -107 39 -37 92 -83 118
-104 27 -20 108 -88 182 -149 73 -62 136 -113 140 -113 3 0 58 -45 123 -100
l117 -100 60 63 c33 34 79 85 102 113 l42 51 -80 64 c-163 131 -305 251 -324
275 -12 13 -24 24 -28 24 -4 0 -70 53 -147 118 -208 174 -388 323 -439 362
-67 50 -307 252 -370 310 l-55 50 635 0 634 1 -230 223 -229 224 79 87 c43 48
90 95 103 106 14 10 81 77 149 149 l125 130 -806 0 -806 0 0 -518z"/>
<path d="M4040 4755 c0 -154 0 -155 23 -155 63 0 127 -76 127 -150 0 -74 -64
-150 -127 -150 -23 0 -23 -1 -23 -150 0 -171 -7 -160 92 -139 181 37 308 160
354 342 34 131 -13 308 -108 412 -56 61 -154 115 -246 134 -99 21 -92 32 -92
-144z"/>
<path d="M4040 3240 l0 -460 -384 0 -383 0 -7 -37 c-3 -21 -6 -365 -6 -765 l0
-728 155 0 155 0 0 615 0 615 155 0 155 0 0 -615 0 -615 155 0 155 0 0 615 0
615 155 0 155 0 0 -615 0 -615 160 0 160 0 0 765 c0 421 -4 765 -9 765 -4 0
-13 32 -20 72 -15 94 -73 268 -112 338 -107 190 -270 337 -496 446 -73 35
-135 64 -138 64 -3 0 -5 -207 -5 -460z"/>
</g>
</svg>
