<?xml version="1.0" standalone="no"?>
<!DOCTYPE svg PUBLIC "-//W3C//DTD SVG 20010904//EN"
 "http://www.w3.org/TR/2001/REC-SVG-20010904/DTD/svg10.dtd">
<svg version="1.0" xmlns="http://www.w3.org/2000/svg"
 width="841.000000pt" height="671.000000pt" viewBox="0 0 841.000000 671.000000"
 preserveAspectRatio="xMidYMid meet">

<g transform="translate(0.000000,671.000000) scale(0.100000,-0.100000)"
fill="#000000" stroke="none">
<path d="M3661 5664 c-18 -23 -21 -41 -21 -135 0 -77 -3 -109 -12 -109 -6 0
-46 34 -89 75 -86 84 -113 92 -154 50 -41 -40 -33 -69 40 -145 l66 -67 -70
-57 c-165 -135 -291 -336 -348 -554 -21 -82 -26 -132 -34 -327 -19 -508 -63
-739 -170 -906 -22 -34 -38 -67 -35 -74 7 -20 250 -85 466 -125 63 -11 125
-23 138 -26 l24 -5 -27 43 c-41 67 -75 146 -97 228 -19 68 -22 109 -26 436 -3
293 -1 362 10 371 9 8 44 8 118 1 318 -29 644 45 869 196 29 20 57 36 63 36 5
0 30 -18 56 -39 91 -77 276 -151 440 -176 l42 -7 0 -367 c0 -425 -4 -456 -88
-623 l-49 -97 31 6 c252 43 563 118 586 139 13 12 13 17 0 37 -60 95 -84 144
-110 224 -54 169 -75 336 -89 718 -8 205 -13 254 -35 337 -78 305 -287 560
-571 699 -234 114 -471 137 -767 73 l-28 -6 0 81 c0 68 -3 84 -20 101 -30 30
-83 27 -109 -6z"/>
<path d="M3765 3995 c-16 -15 -25 -36 -25 -55 0 -38 39 -80 73 -80 42 0 77 36
77 79 0 73 -75 106 -125 56z"/>
<path d="M4372 4013 c-7 -3 -19 -18 -28 -35 -34 -65 28 -136 95 -108 76 31 50
152 -31 149 -13 0 -29 -3 -36 -6z"/>
<path d="M3917 3562 c-23 -25 -21 -78 2 -101 57 -57 216 -78 312 -41 93 35
126 93 79 140 -25 25 -51 25 -120 -1 -60 -23 -118 -21 -170 6 -39 20 -83 19
-103 -3z"/>
<path d="M4372 2073 c-21 -8 -43 -61 -36 -88 13 -51 31 -55 252 -55 124 0 211
4 223 11 43 23 42 106 -1 129 -19 10 -414 13 -438 3z"/>
</g>
</svg>
