<?xml version="1.0" standalone="no"?>
<!DOCTYPE svg PUBLIC "-//W3C//DTD SVG 20010904//EN"
 "http://www.w3.org/TR/2001/REC-SVG-20010904/DTD/svg10.dtd">
<svg version="1.0" xmlns="http://www.w3.org/2000/svg"
 width="841.000000pt" height="671.000000pt" viewBox="0 0 841.000000 671.000000"
 preserveAspectRatio="xMidYMid meet">

<g transform="translate(0.000000,671.000000) scale(0.100000,-0.100000)"
fill="#000000" stroke="none">
<path d="M2800 4568 l0 -793 225 225 225 225 300 -300 300 -300 450 450 450
450 375 -375 375 -375 0 793 0 792 -1350 0 -1350 0 0 -792z m1179 473 c85 -26
142 -62 198 -125 162 -183 162 -429 0 -612 -138 -155 -375 -189 -559 -81 -54
31 -139 120 -166 173 -69 135 -69 293 0 428 27 53 112 142 166 173 106 62 247
80 361 44z"/>
</g>
</svg>
