<?xml version="1.0" standalone="no"?>
<!DOCTYPE svg PUBLIC "-//W3C//DTD SVG 20010904//EN"
 "http://www.w3.org/TR/2001/REC-SVG-20010904/DTD/svg10.dtd">
<svg version="1.0" xmlns="http://www.w3.org/2000/svg"
 width="846.000000pt" height="670.000000pt" viewBox="0 0 846.000000 670.000000"
 preserveAspectRatio="xMidYMid meet">

<g transform="translate(0.000000,670.000000) scale(0.100000,-0.100000)"
fill="#000000" stroke="none">
<path d="M6262 6409 c-119 -16 -238 -111 -283 -227 -20 -49 -23 -80 -27 -229
l-4 -173 366 0 366 0 0 170 c0 147 -3 177 -21 225 -61 163 -222 258 -397 234z"/>
<path d="M3637 5986 c-84 -31 -148 -94 -175 -175 -8 -24 -12 -156 -12 -442 l0
-408 26 -20 c36 -28 60 -26 95 8 l29 29 0 166 0 166 195 0 195 0 0 -160 c0
-97 4 -169 11 -184 23 -51 103 -55 128 -7 7 13 11 157 11 423 0 383 -1 405
-21 448 -25 55 -80 114 -134 143 -34 18 -60 22 -175 24 -97 2 -146 -1 -173
-11z m290 -156 c55 -33 63 -62 63 -225 l0 -145 -195 0 -195 0 0 148 c0 163 6
183 59 219 30 20 46 23 135 23 83 0 107 -4 133 -20z"/>
<path d="M4579 5714 c-9 -11 -16 -56 -19 -133 l-5 -116 -115 -5 c-63 -3 -121
-9 -128 -13 -40 -26 -31 -105 14 -126 14 -6 72 -11 129 -11 l105 0 0 -113 c0
-106 2 -115 23 -135 31 -29 72 -28 102 3 24 23 25 31 25 135 l0 110 110 0
c104 0 112 1 135 25 32 31 33 74 2 103 -21 20 -34 22 -135 22 l-112 0 0 109
c0 94 -3 112 -21 135 -24 31 -88 37 -110 10z"/>
<path d="M2470 4020 c-30 -30 -27 -83 7 -109 l26 -21 1179 2 1180 3 19 24 c25
30 24 62 -2 95 l-20 26 -1185 0 c-1171 0 -1184 0 -1204 -20z"/>
<path d="M2476 3489 c-33 -26 -36 -79 -6 -109 20 -20 31 -20 1206 -18 l1187 3
19 26 c15 20 18 35 13 58 -14 64 55 61 -1228 61 -1163 0 -1164 0 -1191 -21z"/>
<path d="M2470 2950 c-30 -30 -27 -83 6 -109 27 -21 28 -21 1201 -21 l1174 0
24 25 c14 13 25 36 25 50 0 14 -11 37 -25 50 l-24 25 -1181 0 c-1167 0 -1180
0 -1200 -20z"/>
<path d="M2500 2433 c-51 -19 -68 -85 -30 -123 20 -20 33 -20 1204 -20 l1185
0 20 26 c12 15 21 33 21 40 0 26 -23 62 -47 73 -17 8 -353 11 -1181 10 -636 0
-1164 -3 -1172 -6z"/>
<path d="M6159 1583 c10 -27 37 -96 60 -154 36 -93 46 -109 73 -120 57 -23 76
-2 140 156 31 77 57 146 57 153 1 9 -40 12 -174 12 l-175 0 19 -47z"/>
</g>
</svg>
