<?xml version="1.0" standalone="no"?>
<!DOCTYPE svg PUBLIC "-//W3C//DTD SVG 20010904//EN"
 "http://www.w3.org/TR/2001/REC-SVG-20010904/DTD/svg10.dtd">
<svg version="1.0" xmlns="http://www.w3.org/2000/svg"
 width="841.000000pt" height="669.000000pt" viewBox="0 0 841.000000 669.000000"
 preserveAspectRatio="xMidYMid meet">

<g transform="translate(0.000000,669.000000) scale(0.100000,-0.100000)"
fill="#000000" stroke="none">
<path d="M3878 5860 c-20 -11 -47 -34 -60 -52 -22 -32 -23 -41 -25 -253 -3
-208 -2 -218 13 -190 39 72 100 108 184 108 60 0 90 -12 182 -75 l57 -38 88
49 c98 56 149 68 211 52 49 -14 109 -63 128 -106 12 -26 13 0 11 195 -2 218
-3 226 -25 258 -13 18 -41 41 -62 52 -37 19 -60 20 -352 20 -290 -1 -316 -2
-350 -20z"/>
<path d="M3739 4751 c-113 -37 -221 -78 -239 -91 -64 -46 -70 -74 -70 -361 l0
-256 391 -222 c215 -122 393 -221 394 -219 2 2 -48 136 -111 298 -119 310
-128 347 -99 415 8 20 60 83 117 141 l102 105 -129 129 c-72 72 -134 130 -140
129 -5 0 -103 -31 -216 -68z"/>
<path d="M4365 4690 l-129 -129 102 -105 c57 -58 109 -121 117 -141 28 -66 20
-101 -100 -416 -63 -166 -114 -303 -112 -305 2 -2 178 97 392 219 l390 223 3
249 c4 372 10 362 -306 465 -118 39 -217 70 -221 70 -3 0 -64 -58 -136 -130z"/>
<path d="M2878 3730 c-252 -43 -461 -229 -523 -465 -13 -53 -81 -915 -73 -934
5 -11 409 116 438 137 57 42 70 77 70 183 0 94 -2 101 -41 181 l-40 83 3 155
c4 170 9 189 70 250 108 109 288 105 389 -7 61 -68 71 -110 67 -274 l-4 -144
-42 -82 c-37 -72 -42 -90 -41 -145 2 -169 27 -190 323 -277 115 -34 210 -60
211 -59 8 8 -57 853 -70 908 -75 326 -406 545 -737 490z"/>
<path d="M5180 3661 c-47 -10 -73 -25 -104 -61 -37 -45 -46 -90 -46 -237 0
-120 2 -133 18 -133 9 0 110 19 225 41 l207 42 208 -42 c114 -22 213 -41 220
-41 9 0 12 51 12 220 l0 220 -352 -1 c-194 -1 -369 -4 -388 -8z"/>
<path d="M5390 2155 l0 -85 85 0 85 0 0 85 0 85 -85 0 -85 0 0 -85z"/>
<path d="M5750 2155 l0 -85 130 0 130 0 0 85 0 85 -130 0 -130 0 0 -85z"/>
<path d="M5390 1800 l0 -90 85 0 85 0 0 90 0 90 -85 0 -85 0 0 -90z"/>
</g>
</svg>
